<svg width="16" height="16" viewBox="0 0 16 16" fill="none" xmlns="http://www.w3.org/2000/svg">
<path d="M13.8182 10.282V8C13.8182 7.80738 13.7416 7.62264 13.6052 7.48644C13.4688 7.35023 13.2838 7.27372 13.0909 7.27372H8.72727V5.71802C9.41284 5.54124 10.0103 5.12085 10.4077 4.53562C10.8051 3.9504 10.9751 3.24053 10.8859 2.53907C10.7967 1.83762 10.4544 1.19274 9.92308 0.725311C9.3918 0.257883 8.70805 0 8 0C7.29195 0 6.6082 0.257883 6.07692 0.725311C5.54565 1.19274 5.20332 1.83762 5.1141 2.53907C5.02488 3.24053 5.1949 3.9504 5.59229 4.53562C5.98968 5.12085 6.58716 5.54124 7.27273 5.71802V7.27372H2.9091C2.71621 7.27372 2.53123 7.35023 2.39484 7.48644C2.25845 7.62264 2.18182 7.80738 2.18182 8V10.282C1.49625 10.4588 0.898778 10.8792 0.501387 11.4644C0.103997 12.0496 -0.0660243 12.7595 0.0231934 13.4609C0.112411 14.1624 0.454742 14.8073 0.986019 15.2747C1.5173 15.7421 2.20104 16 2.9091 16C3.61715 16 4.3009 15.7421 4.83217 15.2747C5.36345 14.8073 5.70578 14.1624 5.795 13.4609C5.88421 12.7595 5.71419 12.0496 5.3168 11.4644C4.91941 10.8792 4.32194 10.4588 3.63637 10.282V8.72628H12.3636V10.282C11.6781 10.4588 11.0806 10.8792 10.6832 11.4644C10.2858 12.0496 10.1158 12.7595 10.205 13.4609C10.2942 14.1624 10.6366 14.8073 11.1678 15.2747C11.6991 15.7421 12.3829 16 13.0909 16C13.799 16 14.4827 15.7421 15.014 15.2747C15.5453 14.8073 15.8876 14.1624 15.9768 13.4609C16.066 12.7595 15.896 12.0496 15.4986 11.4644C15.1012 10.8792 14.5037 10.4588 13.8182 10.282ZM4.36364 13.084C4.36364 13.3713 4.27833 13.6521 4.1185 13.891C3.95868 14.1299 3.73151 14.316 3.46573 14.426C3.19994 14.5359 2.90748 14.5647 2.62533 14.5086C2.34317 14.4526 2.084 14.3142 1.88058 14.1111C1.67716 13.908 1.53862 13.6491 1.4825 13.3674C1.42638 13.0856 1.45518 12.7935 1.56527 12.5281C1.67536 12.2627 1.8618 12.0358 2.10099 11.8762C2.34019 11.7166 2.62141 11.6314 2.9091 11.6314C3.29486 11.6314 3.66483 11.7845 3.93761 12.0569C4.21039 12.3293 4.36364 12.6987 4.36364 13.084ZM6.54546 2.91602C6.54546 2.62873 6.63076 2.34789 6.79059 2.10901C6.95042 1.87014 7.17759 1.68396 7.44337 1.57402C7.70915 1.46408 8.00161 1.43531 8.28377 1.49136C8.56592 1.54741 8.8251 1.68575 9.02852 1.8889C9.23194 2.09204 9.37047 2.35086 9.4266 2.63263C9.48272 2.9144 9.45391 3.20647 9.34382 3.47189C9.23373 3.73731 9.0473 3.96417 8.8081 4.12378C8.5689 4.28339 8.28768 4.36858 8 4.36858C7.61423 4.36858 7.24426 4.21554 6.97148 3.94314C6.6987 3.67073 6.54546 3.30126 6.54546 2.91602ZM13.0909 14.5366C12.8032 14.5366 12.522 14.4514 12.2828 14.2917C12.0436 14.1321 11.8572 13.9053 11.7471 13.6399C11.637 13.3744 11.6082 13.0824 11.6643 12.8006C11.7204 12.5188 11.859 12.26 12.0624 12.0569C12.2658 11.8537 12.525 11.7154 12.8071 11.6593C13.0893 11.6033 13.3818 11.632 13.6475 11.742C13.9133 11.8519 14.1405 12.0381 14.3003 12.277C14.4601 12.5159 14.5454 12.7967 14.5454 13.084C14.5454 13.4692 14.3922 13.8387 14.1194 14.1111C13.8466 14.3835 13.4767 14.5366 13.0909 14.5366Z" fill="white"/>
</svg>
