<svg width="16" height="16" viewBox="0 0 16 16" fill="none" xmlns="http://www.w3.org/2000/svg">
<path d="M15.0021 7.70282C15.0233 8.24574 14.9823 8.7893 14.88 9.32292C14.6196 10.6746 13.9666 11.9195 13.0025 12.9021C12.0384 13.8846 10.8061 14.5612 9.45964 14.8472C8.11315 15.1332 6.71223 15.016 5.43201 14.5102C4.15178 14.0043 3.04907 13.1323 2.26172 12.0032" stroke="white" stroke-width="1.5" stroke-linecap="round"/>
<path d="M1.00204 8.17929C0.989918 7.67988 1.03186 7.18062 1.12712 6.69023C1.38442 5.34077 2.03301 4.09682 2.99213 3.1133C3.95125 2.12977 5.17851 1.45013 6.52108 1.15902C7.86364 0.867899 9.26219 0.978171 10.5425 1.4761C11.8229 1.97403 12.9285 2.83761 13.7216 3.95929" stroke="white" stroke-width="1.5" stroke-linecap="round"/>
<path d="M10.5732 3.67041L13.8045 4.04863L14.1261 1.01691" stroke="white" stroke-width="1.5" stroke-linecap="round"/>
<path d="M5.34684 12.2265L2.11856 11.8483L1.79395 14.8801" stroke="white" stroke-width="1.5" stroke-linecap="round"/>
<path d="M6.1543 5.19226H7.02391C7.87267 5.19226 8.81078 5.4722 8.81078 6.76173C8.81078 8.16443 7.61953 8.70049 6.36277 8.5486C6.34786 8.54757 6.33298 8.55105 6.32008 8.55859C6.30717 8.56613 6.29683 8.57738 6.29041 8.59087C6.28398 8.60436 6.28177 8.61948 6.28405 8.63425C6.28633 8.64902 6.293 8.66276 6.3032 8.67368L8.98351 11.5535" stroke="white" stroke-linecap="round"/>
<path d="M9.83198 5.19226H6.83301" stroke="white" stroke-linecap="round"/>
<path d="M6.19922 6.80933H9.85337" stroke="white" stroke-linecap="round"/>
</svg>
