<svg width="16" height="16" viewBox="0 0 16 16" fill="none" xmlns="http://www.w3.org/2000/svg">
<path d="M7.50006 0.942486C7.67056 0.941177 7.83459 1.00765 7.95608 1.12728C8.07756 1.24691 8.14655 1.4099 8.14786 1.58039C8.14917 1.75088 8.08269 1.91491 7.96306 2.03639C7.84342 2.15787 7.68043 2.22685 7.50993 2.22816C5.86179 2.24081 4.28617 2.90765 3.1297 4.08196C1.97324 5.25628 1.33065 6.84189 1.3433 8.48997C1.35595 10.1381 2.02281 11.7136 3.19717 12.87C4.37153 14.0265 5.95719 14.669 7.60534 14.6564C7.77584 14.6551 7.93987 14.7215 8.06136 14.8412C8.18284 14.9608 8.25183 15.1238 8.25314 15.2943C8.25444 15.4648 8.18797 15.6288 8.06833 15.7503C7.9487 15.8718 7.78571 15.9407 7.61521 15.942C5.62607 15.9573 3.71233 15.1818 2.295 13.7861C0.877669 12.3904 0.0728423 10.4889 0.057573 8.49984C0.0423037 6.51077 0.817843 4.59711 2.21358 3.17983C3.60932 1.76255 5.51092 0.957756 7.50006 0.942486Z" fill="white"/>
<path d="M11.3727 6.29577C11.2582 6.17479 11.1952 6.01408 11.1968 5.84752C11.1985 5.68096 11.2647 5.52155 11.3816 5.40286C11.4985 5.28418 11.6569 5.21549 11.8234 5.21128C11.9899 5.20706 12.1516 5.26764 12.2743 5.38026L14.8655 7.93187C14.9868 8.05148 15.0557 8.21435 15.057 8.3847C15.0583 8.55505 14.9919 8.71896 14.8725 8.84041L12.3208 11.4315C12.2624 11.4951 12.1918 11.5463 12.1132 11.5821C12.0346 11.6178 11.9497 11.6373 11.8633 11.6395C11.777 11.6417 11.6912 11.6265 11.6109 11.5948C11.5306 11.5631 11.4575 11.5155 11.396 11.4549C11.3345 11.3944 11.2858 11.322 11.2528 11.2422C11.2199 11.1624 11.2034 11.0768 11.2042 10.9905C11.2051 10.9041 11.2233 10.8189 11.2579 10.7398C11.2924 10.6606 11.3425 10.5893 11.4052 10.5299L12.8682 9.04438L5.84813 9.09827C5.67763 9.09958 5.5136 9.0331 5.39211 8.91347C5.27063 8.79384 5.20164 8.63085 5.20033 8.46036C5.19902 8.28987 5.2655 8.12584 5.38513 8.00436C5.50477 7.88288 5.66776 7.8139 5.83826 7.81259L12.8583 7.7587L11.3727 6.29577Z" fill="white"/>
</svg>
