<svg width="13" height="18" viewBox="0 0 13 18" fill="none" xmlns="http://www.w3.org/2000/svg">
<path d="M6.28839 7.89234C6.21079 7.88457 6.11767 7.88457 6.03231 7.89234C4.18539 7.83018 2.71875 6.31495 2.71875 4.45006C2.71875 2.54631 4.25523 1 6.16423 1C8.06543 1 9.60967 2.54631 9.60967 4.45006C9.60191 6.31495 8.13527 7.83018 6.28839 7.89234Z" stroke="white" stroke-width="1.5" stroke-linecap="round" stroke-linejoin="round"/>
<path d="M2.40844 10.7596C0.530519 12.0184 0.530519 14.0698 2.40844 15.3208C4.54245 16.7506 8.04223 16.7506 10.1762 15.3208C12.0542 14.062 12.0542 12.0106 10.1762 10.7596C8.04999 9.33762 4.55021 9.33762 2.40844 10.7596Z" stroke="white" stroke-width="1.5" stroke-linecap="round" stroke-linejoin="round"/>
</svg>
